# xmcd
#
# Track frame offsets:
#	150
#	19673
#	35799
#	52551
#	70912
#	84790
#	104422
#	116457
#	134557
#	148778
#	166961
#
# Disc length: 2475 seconds
#
# Revision: 1
# Processed by: cddbd v1.5.1PL2 Copyright (c) Steve Scherf et al.
# Submitted via: EasyCDDAExtractor 9.1.3.1
#
DISCID=8e09a90b
DTITLE=Heidi Hauge - Country Rose
DYEAR=1900
DGENRE=Country
TTITLE0=Yellow Roses
TTITLE1=Banks Of Ohio
TTITLE2=Uten Deg
TTITLE3=Crystal chandeliers
TTITLE4=She Never Spoke Spanish to Me
TTITLE5=Smokey Mountain Queen
TTITLE6=Should I do it
TTITLE7=Der elvene møtes
TTITLE8=Much Too Young
TTITLE9=Angel With A Broken Wing
TTITLE10=I Don't Want Tonight to be Over
EXTD=
EXTT0=
EXTT1=
EXTT2=
EXTT3=
EXTT4=
EXTT5=
EXTT6=
EXTT7=
EXTT8=
EXTT9=
EXTT10=
PLAYORDER=
